<?xml version="1.0" encoding="UTF-8"?>
<svg version="1.1" xmlns="http://www.w3.org/2000/svg" width="512" height="512">
<path d="M0 0 C11.35509635 9.96109299 22.02043487 20.58808279 31.25 32.5625 C32.44496094 34.06683594 32.44496094 34.06683594 33.6640625 35.6015625 C63.47876049 73.34131934 80.04631968 116.56299909 86.86450195 163.96728516 C87.13118747 165.76264108 87.44016773 167.55203457 87.78271484 169.33447266 C88.36829591 173.37969357 88.44985893 177.33943298 88.48828125 181.421875 C88.4980751 182.27529984 88.50786896 183.12872467 88.51795959 184.00801086 C88.69298383 203.24684477 88.36040425 221.68508789 84.25 240.5625 C84.03037598 241.60599609 83.81075195 242.64949219 83.58447266 243.72460938 C71.27138066 301.34256001 40.35175856 356.17701455 -6.75 392.5625 C-7.94375008 393.52996601 -9.13638134 394.49881352 -10.328125 395.46875 C-42.37937661 421.1835509 -79.81241278 437.00244876 -119.75 445.5625 C-120.80687012 445.7898584 -121.86374023 446.0172168 -122.95263672 446.25146484 C-152.57058607 452.30915265 -185.24123757 451.98779504 -214.75 445.5625 C-215.79349609 445.34287598 -216.83699219 445.12325195 -217.91210938 444.89697266 C-275.71888964 432.54352733 -330.02963781 401.53648657 -366.75 354.5625 C-367.25466797 353.9236084 -367.75933594 353.2847168 -368.27929688 352.62646484 C-375.40294536 343.59061226 -382.0137537 334.55352403 -387.75 324.5625 C-388.10513672 323.95615723 -388.46027344 323.34981445 -388.82617188 322.72509766 C-423.15057154 264.11484676 -432.62810838 195.96511383 -416.30200195 130.17114258 C-406.89831376 94.31709168 -390.13660425 61.29170229 -366.75 32.5625 C-366.01015869 31.64911865 -366.01015869 31.64911865 -365.25537109 30.71728516 C-354.38633324 17.40226015 -342.37651611 5.06545941 -328.75 -5.4375 C-327.74710937 -6.23414063 -326.74421875 -7.03078125 -325.7109375 -7.8515625 C-293.16358199 -33.57003123 -255.37195969 -50.40025887 -214.75 -58.4375 C-213.81784668 -58.63504883 -212.88569336 -58.83259766 -211.92529297 -59.03613281 C-137.25867671 -74.57737026 -57.04913665 -49.02624869 0 0 Z " fill="#00B2FD" transform="translate(423.75,62.4375)"/>
<path d="M0 0 C19.7028977 15.74103211 32.57787845 38.26484881 36.265625 63.2421875 C38.52527974 91.40806051 31.43712953 115.99654833 13.31640625 137.87109375 C-2.2871983 155.91183272 -24.81721633 168.10434092 -48.734375 170.2421875 C-59.47326215 170.75717588 -70.2412931 170.81735852 -80.734375 168.2421875 C-81.74113281 167.99726563 -82.74789062 167.75234375 -83.78515625 167.5 C-109.26299743 160.46948461 -129.17974908 143.94531378 -142.45703125 121.3046875 C-146.68498424 113.34618776 -149.41532405 104.92251669 -151.734375 96.2421875 C-151.92346436 95.54931641 -152.11255371 94.85644531 -152.30737305 94.14257812 C-153.81370381 88.11457118 -154.08265911 82.31457982 -154.046875 76.1171875 C-154.04196045 75.10672363 -154.0370459 74.09625977 -154.03198242 73.05517578 C-153.6364765 47.6089334 -142.65780833 24.95484086 -125.296875 6.67578125 C-90.86034185 -25.89166375 -37.78582216 -28.68923534 0 0 Z " fill="#FCFEFE" transform="translate(314.734375,149.7578125)"/>
<path d="M0 0 C14.52 0 29.04 0 44 0 C43.01 3.3 42.02 6.6 41 10 C36.07873017 27.51810043 35.99539135 47.49391915 41 65 C41.35191406 66.23621094 41.70382813 67.47242188 42.06640625 68.74609375 C46.40196749 82.72577472 52.71266201 94.6977819 62 106 C62.69867188 106.86367188 63.39734375 107.72734375 64.1171875 108.6171875 C76.9522334 123.70894477 95.06575681 134.51960044 114 140 C115.06347656 140.31839844 116.12695312 140.63679687 117.22265625 140.96484375 C133.86147795 145.11022183 154.63544522 145.38459004 171 140 C171.71381836 139.77425293 172.42763672 139.54850586 173.16308594 139.31591797 C200.27680878 130.61641773 220.43134359 114.54112309 235 90 C235.55816406 89.06671875 236.11632812 88.1334375 236.69140625 87.171875 C250.65956463 61.64260381 250.99112564 31.35248148 243 4 C242.67 2.68 242.34 1.36 242 0 C256.52 0 271.04 0 286 0 C286 51.48 286 102.96 286 156 C191.62 156 97.24 156 0 156 C0 104.52 0 53.04 0 0 Z " fill="#FBFDFE" transform="translate(113,187)"/>
<path d="M0 0 C0.67328842 -0.00014603 1.34657684 -0.00029205 2.04026794 -0.0004425 C4.26955366 0.00025512 6.4987562 0.0080405 8.72802734 0.01586914 C10.27216547 0.01773385 11.81630419 0.01915751 13.36044312 0.02015686 C17.42766957 0.02397785 21.49486039 0.03380457 25.56207275 0.04486084 C29.71113605 0.05508395 33.86020509 0.05965641 38.00927734 0.06469727 C46.15252287 0.0754272 54.29573943 0.09249862 62.43896484 0.11352539 C61.77764711 1.78232168 61.10993654 3.44858719 60.43896484 5.11352539 C60.16013458 5.84178024 59.88130432 6.5700351 59.59402466 7.32035828 C58.43828016 9.71205539 57.40755337 11.31371921 55.43896484 13.11352539 C51.23599706 14.27076897 47.14052724 14.11308181 42.80615234 14.00805664 C41.57736359 14.01181808 40.34857483 14.01557953 39.08255005 14.01945496 C35.15855736 14.02576533 31.23757337 13.97864451 27.31396484 13.92602539 C23.38382851 13.89986289 19.45417994 13.88498312 15.5239563 13.88615417 C13.07878724 13.88411695 10.63355994 13.86468187 8.18869019 13.82637024 C7.08389313 13.82034286 5.97909607 13.81431549 4.84082031 13.80810547 C3.86772919 13.79507889 2.89463806 13.78205231 1.89205933 13.76863098 C-0.54276048 13.92860079 -0.54276048 13.92860079 -2.1909647 15.21042919 C-4.24975289 18.07018867 -3.93572722 20.41207198 -3.93525696 23.90795898 C-3.93923136 24.60260946 -3.94320577 25.29725994 -3.94730061 26.01296043 C-3.95694345 28.34616797 -3.94509399 30.67877214 -3.93334961 33.01196289 C-3.93577693 34.6823957 -3.93949566 36.35282706 -3.94441223 38.02325439 C-3.9538331 42.56453295 -3.94438579 47.10559643 -3.9310801 51.64685822 C-3.91978091 56.39404847 -3.92387192 61.1412279 -3.92582703 65.88842773 C-3.92671049 73.86128258 -3.91561873 81.83405248 -3.8972168 89.80688477 C-3.87604838 99.03127931 -3.87253899 108.25554939 -3.87877876 117.4799633 C-3.8844689 126.34491498 -3.87883088 135.20982272 -3.86760521 144.07476807 C-3.86295458 147.85142833 -3.86208737 151.62806177 -3.86419106 155.40472412 C-3.86607153 159.85014714 -3.85798869 164.29544306 -3.84213066 168.7408371 C-3.83787979 170.37470728 -3.83704263 172.00859034 -3.83982086 173.64246368 C-3.84303186 175.86814695 -3.83398853 178.09344786 -3.82173157 180.3190918 C-3.8196787 181.56606842 -3.81762583 182.81304504 -3.81551075 184.09780884 C-3.79030073 187.2926316 -3.79030073 187.2926316 -1.56103516 190.11352539 C0.69992074 190.5678484 0.69992074 190.5678484 3.37750912 190.49104881 C4.42814319 190.49887205 5.47877725 190.5066953 6.56124872 190.51475561 C7.72455211 190.50806344 8.88785551 190.50137128 10.08641052 190.49447632 C11.31515194 190.49915629 12.54389335 190.50383626 13.80986935 190.50865805 C17.23160581 190.51858827 20.6528517 190.51496791 24.07455885 190.5056994 C27.76038635 190.49893621 31.44616969 190.50937655 35.13198853 190.51763916 C42.35713878 190.5310084 49.58219576 190.52808449 56.80734973 190.51940124 C62.67780358 190.51263708 68.5482312 190.51170246 74.41868782 190.51497269 C75.6700577 190.51566224 75.6700577 190.51566224 76.94670777 190.51636571 C78.64126452 190.51732485 80.33582126 190.51829749 82.03037799 190.51928349 C97.93631019 190.52784686 113.84219059 190.51798869 129.7481143 190.50188239 C143.405914 190.4884808 157.06363722 190.49080414 170.72143555 190.50463867 C186.56734336 190.52068202 202.41320572 190.52702021 218.25912052 190.51780188 C219.94788904 190.5168462 221.63665757 190.51590309 223.3254261 190.51497269 C224.15641118 190.51450986 224.98739626 190.51404703 225.8435627 190.51357018 C231.70869701 190.51097637 237.57380256 190.51535975 243.43893242 190.52241135 C250.5841898 190.53081285 257.72934826 190.52857486 264.87459426 190.51256911 C268.52254021 190.50466773 272.17032107 190.50162631 275.81826591 190.51151657 C279.76711645 190.52206094 283.7156948 190.5094974 287.66453552 190.49447632 C288.8256082 190.50116848 289.98668087 190.50786065 291.18293756 190.51475561 C292.76280029 190.50302074 292.76280029 190.50302074 294.37457943 190.49104881 C295.28672268 190.49056176 296.19886593 190.4900747 297.13864988 190.48957288 C299.91102241 190.03635506 300.80369452 189.36901835 302.43896484 187.11352539 C302.89425822 183.97944223 302.89425822 183.97944223 302.81991577 180.3190918 C302.82459574 179.62444132 302.82927572 178.92979084 302.8340975 178.21409035 C302.84608632 175.88089668 302.83657551 173.54828617 302.82714844 171.21508789 C302.83121243 169.54465389 302.83655333 167.87422258 302.84307861 166.20379639 C302.85677861 161.66252833 302.85144254 157.12146428 302.84194136 152.58019257 C302.83435863 147.83299703 302.8413865 143.08581925 302.84609985 138.33862305 C302.85156146 130.36577206 302.84435518 122.39300437 302.83007812 114.42016602 C302.81375083 105.19573859 302.81903905 95.97151008 302.83555734 86.74708748 C302.84916069 78.83450172 302.85109752 70.92197592 302.84324133 63.00938225 C302.83855847 58.28033054 302.83795676 53.5513724 302.8478508 48.82232666 C302.85650146 44.37686071 302.85053349 39.9316518 302.83316803 35.48621368 C302.82919299 33.8523425 302.83035455 32.21844978 302.83695602 30.5845871 C302.84512179 28.35874994 302.83491124 26.13374286 302.81991577 23.90795898 C302.81878469 22.66098236 302.81765362 21.41400574 302.81648827 20.12924194 C302.68638422 17.13648996 302.68638422 17.13648996 301.06763268 15.20916748 C298.69405836 13.61240977 296.90961714 13.79086622 294.06884766 13.85571289 C292.97050598 13.87142334 291.87216431 13.88713379 290.74053955 13.90332031 C289.55305115 13.93143799 288.36556274 13.95955566 287.14208984 13.98852539 C284.63168796 14.00524016 282.12126865 14.01948539 279.61083984 14.03149414 C275.64866115 14.06439771 271.68929515 14.11351769 267.72802734 14.20581055 C263.90638668 14.28733507 260.08949019 14.29951821 256.26708984 14.30102539 C255.08769836 14.34533691 253.90830688 14.38964844 252.69317627 14.43530273 C249.27217764 14.40602791 246.66431203 14.2668013 243.43896484 13.11352539 C240.14705176 9.66995143 236.43896484 5.08880855 236.43896484 0.11352539 C245.33175279 0.02071791 254.22437323 -0.05029375 263.11754036 -0.0937233 C267.24731719 -0.11457066 271.37676193 -0.14283551 275.50634766 -0.18823242 C279.49397914 -0.23179294 283.48129181 -0.25563316 287.46914291 -0.26598358 C288.98816825 -0.27335674 290.50717674 -0.28775503 292.02606583 -0.30939484 C294.15903246 -0.33856636 296.29069312 -0.34242515 298.42382812 -0.34057617 C300.242509 -0.35389984 300.242509 -0.35389984 302.09793091 -0.36749268 C307.28564832 0.37939761 310.34699906 2.87399667 313.75146484 6.73852539 C316.68422219 10.8661098 316.58969937 14.04205792 316.59286499 18.96890259 C316.59724724 19.78984449 316.6016295 20.61078639 316.60614455 21.45660532 C316.61956023 24.22326973 316.62571766 26.98990228 316.63183594 29.7565918 C316.63973484 31.73403061 316.64800365 33.71146798 316.65661621 35.68890381 C316.68286482 42.19761778 316.69814848 48.70633827 316.71240234 55.21508789 C316.7177612 57.45423766 316.7231387 59.69338739 316.7285347 61.93253708 C316.75016919 71.24697881 316.76890572 80.56141878 316.78015709 89.87587929 C316.79639372 103.23047859 316.82955827 116.58478679 316.88655794 129.93927634 C316.9252548 139.32535134 316.9447896 148.71134848 316.95007765 158.09750116 C316.95373195 163.70487931 316.96576157 169.31194718 316.99818039 174.91923904 C317.0282556 180.19702263 317.0345746 185.47430813 317.02279663 190.75215912 C317.02257584 192.68711325 317.03088543 194.62209045 317.04845047 196.55696487 C317.07116815 199.20398924 317.06283562 201.84921152 317.04696655 204.49624634 C317.06084864 205.25755092 317.07473073 206.01885551 317.08903348 206.80322993 C317.00341012 212.62115514 315.23993714 216.69349413 311.43896484 221.11352539 C306.04138417 225.33326482 299.42036081 224.5340879 292.87512207 224.50120544 C290.95655451 224.50928375 290.95655451 224.50928375 288.999228 224.51752526 C285.45560191 224.53197771 281.91220843 224.52773588 278.36856961 224.52035844 C274.54437149 224.51562861 270.72022383 224.5281349 266.89604187 224.53837585 C259.40707867 224.55557222 251.91819933 224.55640222 244.42922151 224.55116295 C238.34292714 224.54712196 232.25665756 224.54856396 226.17036438 224.55391121 C224.87115019 224.55503384 224.87115019 224.55503384 223.54568925 224.55617915 C221.78615184 224.55771062 220.02661443 224.55924897 218.26707703 224.56079412 C201.7668315 224.57452193 185.2666334 224.56907926 168.76638895 224.55760891 C153.66820412 224.54767387 138.5701418 224.56062137 123.47197586 224.5845431 C107.97023406 224.60891933 92.46854936 224.61854576 76.96678877 224.61189038 C68.26324876 224.60839517 59.559803 224.61065019 50.85627747 224.6281414 C43.44804678 224.64284483 36.03997674 224.64352313 28.63174927 224.62607049 C24.85171623 224.61754313 21.07197039 224.61545299 17.29195213 224.63072205 C13.19533653 224.64706525 9.09941726 224.63245677 5.00280762 224.61473083 C3.80651057 224.62433584 2.61021352 224.63394085 1.37766504 224.64383692 C-9.01553249 224.55098547 -9.01553249 224.55098547 -13.56103516 220.11352539 C-17.3706789 214.87747001 -18.1436365 211.01556132 -18.06896973 204.64341736 C-18.07520969 203.8167922 -18.08144965 202.99016705 -18.0878787 202.13849264 C-18.10377013 199.38239856 -18.09121981 196.62719362 -18.07861328 193.87109375 C-18.08403607 191.88966864 -18.09115961 189.90824756 -18.09985352 187.92683411 C-18.11806984 182.55501545 -18.11102653 177.18350451 -18.09833717 171.81168056 C-18.08820223 166.18772354 -18.0976041 160.56379266 -18.10388184 154.93983459 C-18.11115618 145.49695103 -18.10157543 136.05419267 -18.08251953 126.61132812 C-18.06074497 115.69522797 -18.06780736 104.77942658 -18.08982515 93.86333364 C-18.10797763 84.4882034 -18.11053839 75.11316309 -18.10007048 65.73802096 C-18.09383555 60.13980592 -18.09300012 54.54173132 -18.10621643 48.94352531 C-18.11777223 43.68127771 -18.10975389 38.41941538 -18.0866394 33.1572094 C-18.08135118 31.226274 -18.08286802 29.29530618 -18.09169006 27.3643837 C-18.10262448 24.72803493 -18.08890782 22.09291998 -18.06896973 19.45664978 C-18.07789261 18.69293011 -18.0868155 17.92921044 -18.09600878 17.14234775 C-18.02043388 11.98899596 -16.79466582 9.09140151 -13.56103516 5.11352539 C-8.74949124 0.87478432 -6.37828423 -0.01159688 0 0 Z " fill="#FAFDFE" transform="translate(106.56103515625,162.886474609375)"/>
<path d="M0 0 C19.7028977 15.74103211 32.57787845 38.26484881 36.265625 63.2421875 C38.52527974 91.40806051 31.43712953 115.99654833 13.31640625 137.87109375 C-2.2871983 155.91183272 -24.81721633 168.10434092 -48.734375 170.2421875 C-59.47326215 170.75717588 -70.2412931 170.81735852 -80.734375 168.2421875 C-81.74113281 167.99726563 -82.74789062 167.75234375 -83.78515625 167.5 C-109.26299743 160.46948461 -129.17974908 143.94531378 -142.45703125 121.3046875 C-146.68498424 113.34618776 -149.41532405 104.92251669 -151.734375 96.2421875 C-151.92346436 95.54931641 -152.11255371 94.85644531 -152.30737305 94.14257812 C-153.81370381 88.11457118 -154.08265911 82.31457982 -154.046875 76.1171875 C-154.04196045 75.10672363 -154.0370459 74.09625977 -154.03198242 73.05517578 C-153.6364765 47.6089334 -142.65780833 24.95484086 -125.296875 6.67578125 C-90.86034185 -25.89166375 -37.78582216 -28.68923534 0 0 Z M-122.00390625 21.84765625 C-137.95645756 41.98537434 -142.2777086 63.40781216 -140.49609375 88.61328125 C-137.64678435 109.82480677 -124.33249125 129.28549472 -107.734375 142.2421875 C-103.25140155 145.24955807 -98.53290344 147.78008541 -93.734375 150.2421875 C-92.9196875 150.66371094 -92.105 151.08523438 -91.265625 151.51953125 C-81.2944044 156.30643969 -70.95108423 157.7847106 -59.984375 157.6796875 C-58.84693848 157.67066406 -57.70950195 157.66164063 -56.53759766 157.65234375 C-34.70296029 157.20553577 -15.31774401 148.41493133 0.515625 133.3671875 C17.3168214 115.71053304 23.74846259 93.82768515 23.4765625 70.0625 C23.01310003 52.23922121 15.92088319 37.21660577 5.265625 23.2421875 C4.43611328 22.13423828 4.43611328 22.13423828 3.58984375 21.00390625 C-8.9114983 5.52457701 -29.04199667 -4.2510632 -48.56811523 -6.55053711 C-76.62190504 -9.23482287 -103.25792352 0.32688089 -122.00390625 21.84765625 Z " fill="#F9FDFE" transform="translate(314.734375,149.7578125)"/>
<path d="M0 0 C16.04237131 12.63958629 27.59874263 30.51114999 31.37109375 50.78125 C32.74470197 63.55839817 33.19971383 77.43937724 28.78515625 89.6328125 C28.44484375 90.67050781 28.10453125 91.70820313 27.75390625 92.77734375 C20.1703276 114.37517078 4.95102031 131.07999557 -15.58984375 141.0078125 C-33.25151245 149.02967848 -56.3886569 151.5704049 -74.9921875 145.0234375 C-99.53474521 134.43295199 -116.15192172 120.44889565 -127.21484375 95.6328125 C-131.09750673 85.77952881 -132.3907317 76.70367414 -132.33984375 66.1953125 C-132.34371094 65.40060547 -132.34757813 64.60589844 -132.3515625 63.78710938 C-132.31596888 41.91482685 -123.72746128 22.89057116 -108.71972656 7.12597656 C-79.46181335 -21.90410086 -32.88401814 -24.21350546 0 0 Z M-105.96484375 20.8203125 C-118.26377956 36.66151784 -123.48093561 55.75721461 -121.21484375 75.6328125 C-118.74492369 90.14762148 -112.84082556 102.48477374 -103.21484375 113.6328125 C-102.6321875 114.31085938 -102.04953125 114.98890625 -101.44921875 115.6875 C-88.38704008 129.79245764 -70.24136087 136.25724895 -51.46313477 137.01782227 C-32.65798421 137.42306506 -16.4614668 130.86750787 -2.21484375 118.6328125 C-1.621875 118.13523437 -1.02890625 117.63765625 -0.41796875 117.125 C11.04635982 106.65985603 19.86357536 89.16627704 20.92236328 73.61791992 C21.89720222 51.23194467 16.02724853 32.45205729 0.78515625 15.6328125 C-13.22327376 1.55942841 -32.23203231 -5.20740836 -51.83984375 -5.8671875 C-73.19039395 -5.13881052 -91.99089712 4.77615155 -105.96484375 20.8203125 Z " fill="#05B4FE" transform="translate(306.21484375,159.3671875)"/>
<path d="M0 0 C2.9478853 1.46485345 4.72766761 3.06511828 7.01586914 5.42358398 C8.22339844 6.65238281 8.22339844 6.65238281 9.45532227 7.90600586 C10.28354492 8.76387695 11.11176758 9.62174805 11.96508789 10.50561523 C17.09498309 15.7731714 22.21910515 20.91445008 27.80566406 25.69824219 C30.73136665 28.2642748 33.43431259 31.03603854 36.15258789 33.81811523 C40.2139798 37.93088761 44.32519356 41.8762286 48.73071289 45.62280273 C52.54927163 48.99120617 56.19099425 52.58408135 59.65258789 56.31811523 C59.65258789 56.64811523 59.65258789 56.97811523 59.65258789 57.31811523 C48.43258789 57.31811523 37.21258789 57.31811523 25.65258789 57.31811523 C25.65258789 63.58811523 25.65258789 69.85811523 25.65258789 76.31811523 C16.17124891 75.42123182 16.17124891 75.42123182 13.01977539 74.79467773 C8.14568699 74.10484156 3.31914403 74.13377904 -1.59741211 74.13061523 C-2.58354492 74.11836914 -3.56967773 74.10612305 -4.58569336 74.09350586 C-10.29885788 74.08221502 -15.52481645 74.54882107 -21.0847168 75.88720703 C-23.34741211 76.31811523 -23.34741211 76.31811523 -28.34741211 76.31811523 C-28.34741211 70.04811523 -28.34741211 63.77811523 -28.34741211 57.31811523 C-39.56741211 57.31811523 -50.78741211 57.31811523 -62.34741211 57.31811523 C-56.75795867 50.79708622 -51.18816179 44.69680706 -44.65991211 39.13061523 C-40.86405483 35.87381461 -37.36119035 32.37198794 -33.84741211 28.81811523 C-29.86490814 24.79042614 -25.84529301 20.93170676 -21.51928711 17.27124023 C-17.83108437 13.95451115 -14.38195533 10.39199293 -10.91381836 6.84741211 C-3.24460389 -0.94250428 -3.24460389 -0.94250428 0 0 Z " fill="#FDFEFE" transform="translate(257.347412109375,45.681884765625)"/>
<path d="M0 0 C17.16 0 34.32 0 52 0 C59 20 59 20 60 25 C60.73605469 24.93039062 61.47210938 24.86078125 62.23046875 24.7890625 C67.10314688 24.51871576 70.04626259 24.36417506 74.1875 27.125 C76 31 76 31 76 45 C43 45 10 45 -24 45 C-24 31 -24 31 -22.1875 27.125 C-17.54863337 24.03242225 -13.41645474 24.48776085 -8 25 C-7.67 23.35 -7.34 21.7 -7 20 C-4.69 13.4 -2.38 6.8 0 0 Z " fill="#FAFDFE" transform="translate(230,398)"/>
<path d="M0 0 C3.375 0.3125 3.375 0.3125 7 1 C9.45505856 4.68258784 9.15503009 6.28156688 8.9921875 10.65234375 C7.88473011 25.83445207 7.88473011 25.83445207 12.73046875 39.5078125 C14.7842065 41.60807207 16.98267321 43.23837053 19.41015625 44.87890625 C22 47 22 47 22.44140625 50.15625 C22 53 22 53 20.875 54.9375 C19 56 19 56 16.3359375 55.99609375 C11.57494732 54.57448661 9.10006876 51.68089926 5.75 48.125 C5.12609375 47.48691406 4.5021875 46.84882813 3.859375 46.19140625 C-1.16919673 41.00027293 -3.3101923 37.80012046 -3.30078125 30.41015625 C-3.30506638 29.66922226 -3.3093515 28.92828827 -3.31376648 28.16490173 C-3.31950518 26.59895855 -3.32001341 25.0329887 -3.31567383 23.46704102 C-3.31251593 21.07456841 -3.33596959 18.68333517 -3.36132812 16.29101562 C-3.36360143 14.76823072 -3.36430447 13.2454425 -3.36328125 11.72265625 C-3.372491 11.00900406 -3.38170074 10.29535187 -3.39118958 9.56007385 C-3.35275345 5.4212463 -2.92738268 3.00672341 0 0 Z " fill="#0DB6FE" transform="translate(253,189)"/>
<path d="M0 0 C1.14984375 -0.00257813 2.2996875 -0.00515625 3.484375 -0.0078125 C5.28648437 0.00378906 5.28648437 0.00378906 7.125 0.015625 C8.32640625 0.00789063 9.5278125 0.00015625 10.765625 -0.0078125 C12.49039062 -0.00394531 12.49039062 -0.00394531 14.25 0 C15.83167969 0.00338379 15.83167969 0.00338379 17.4453125 0.00683594 C20.125 0.265625 20.125 0.265625 23.125 2.265625 C23.51452075 5.31687084 23.76292575 7.34496992 21.96875 9.93432617 C19.35832008 11.81921419 17.44797418 11.63794698 14.25 11.62890625 C13.10015625 11.62826172 11.9503125 11.62761719 10.765625 11.62695312 C9.56421875 11.61083984 8.3628125 11.59472656 7.125 11.578125 C5.92359375 11.58134766 4.7221875 11.58457031 3.484375 11.58789062 C-5.47446075 11.53265117 -5.47446075 11.53265117 -8.875 9.265625 C-9.25 5.765625 -9.25 5.765625 -8.875 2.265625 C-5.42139557 -0.03677795 -4.07000616 0.00870723 0 0 Z " fill="#02B3FE" transform="translate(248.875,362.734375)"/>
<path d="M0 0 C2.875 0.9375 2.875 0.9375 4.875 3.9375 C5.51656194 8.82381474 5.79400253 13.38226494 3.25 17.6875 C0.875 18.9375 0.875 18.9375 -2.25 18.875 C-5.125 17.9375 -5.125 17.9375 -7.125 14.9375 C-7.76656194 10.05118526 -8.04400253 5.49273506 -5.5 1.1875 C-3.125 -0.0625 -3.125 -0.0625 0 0 Z " fill="#12B8FE" transform="translate(257.125,158.0625)"/>
<path d="M0 0 C1.6640625 1.18359375 1.6640625 1.18359375 3 3 C3.3984375 5.55859375 3.3984375 5.55859375 3.375 8.4375 C3.38273437 9.38496094 3.39046875 10.33242188 3.3984375 11.30859375 C2.94016927 14.40415073 2.18787575 15.78644496 0 18 C-3 18.5 -3 18.5 -6 18 C-8.18787575 15.78644496 -8.94016927 14.40415073 -9.3984375 11.30859375 C-9.39070312 10.36113281 -9.38296875 9.41367187 -9.375 8.4375 C-9.38273438 7.48746094 -9.39046875 6.53742188 -9.3984375 5.55859375 C-9 3 -9 3 -7.6640625 1.18359375 C-5.07521688 -0.65776828 -3.08013011 -0.38501626 0 0 Z " fill="#0EB7FE" transform="translate(259,274)"/>
<path d="M0 0 C5.15195637 0.95406599 8.44137477 4.35858564 11.375 8.625 C11.69175044 11.49264736 11.73804954 12.98432435 10.3125 15.5 C8.375 16.625 8.375 16.625 5.125 16.8125 C0.10959624 15.22428881 -3.11508826 12.28154679 -5.625 7.625 C-5.31770781 3.2973017 -4.44302343 1.05786272 0 0 Z " fill="#08B5FE" transform="translate(293.625,257.375)"/>
<path d="M0 0 C1.875 1.0625 1.875 1.0625 3 3 C3.21972452 6.80855843 2.76400353 9.07114188 0.31640625 12.046875 C-3.4961051 15.65038289 -3.4961051 15.65038289 -6 17 C-9.37781553 16.76015511 -10.583461 16.416539 -13 14 C-13.625 11.375 -13.625 11.375 -13 8 C-9.45028513 3.2212071 -6.32084566 -0.78879106 0 0 Z " fill="#0AB6FE" transform="translate(302,176)"/>
<path d="M0 0 C4.23474635 2.91185002 7.63175302 6.2257191 8.6875 11.3125 C8 14 8 14 6.875 15.9375 C5 17 5 17 2.25 17.1875 C-2.44370971 15.47249068 -5.44000632 12.27170543 -8 8 C-8.29548836 5.09222327 -8.42422401 3.6474998 -6.8125 1.1875 C-4.33985175 -0.43251092 -2.92208318 -0.33088295 0 0 Z " fill="#0BB6FE" transform="translate(215,176)"/>
<path d="M0 0 C1.258125 -0.01675781 2.51625 -0.03351563 3.8125 -0.05078125 C4.864375 0.06910156 5.91625 0.18898437 7 0.3125 C9.15502531 3.54503796 9.46856135 4.56400923 9 8.3125 C7.8515625 9.94140625 7.8515625 9.94140625 6 11.3125 C3.22265625 11.74609375 3.22265625 11.74609375 0.0625 11.75 C-0.97777344 11.76933594 -2.01804687 11.78867188 -3.08984375 11.80859375 C-6.64950711 11.20177865 -7.84700257 10.16404866 -10 7.3125 C-9.66792551 0.33893563 -6.25187295 0.01921682 0 0 Z " fill="#09B5FE" transform="translate(314,219.6875)"/>
<path d="M0 0 C1.88332031 -0.03867188 1.88332031 -0.03867188 3.8046875 -0.078125 C7.125 0.25 7.125 0.25 9.078125 1.57421875 C10.125 3.25 10.125 3.25 10 6.3125 C9.125 9.25 9.125 9.25 6.125 11.25 C3.3125 11.55078125 3.3125 11.55078125 0.125 11.5625 C-0.926875 11.57925781 -1.97875 11.59601563 -3.0625 11.61328125 C-5.875 11.25 -5.875 11.25 -7.765625 9.95703125 C-8.875 8.25 -8.875 8.25 -8.625 4.625 C-7.36991039 -1.02290324 -5.47296548 0.06715295 0 0 Z " fill="#09B5FE" transform="translate(197.875,219.75)"/>
<path d="M0 0 C2.625 0.625 2.625 0.625 4.625 2.625 C5.20439948 5.73927219 5.12012107 7.76162162 3.52734375 10.5390625 C0.85716002 13.99962062 -0.79802986 15.44897521 -5.0625 16.75 C-8.375 16.625 -8.375 16.625 -10.3125 15.5 C-11.73804954 12.98432435 -11.69175044 11.49264736 -11.375 8.625 C-8.44137477 4.35858564 -5.15195637 0.95406599 0 0 Z " fill="#06B4FE" transform="translate(218.375,257.375)"/>
</svg>
